<svg xmlns="http://www.w3.org/2000/svg" viewBox="0 0 512 512" role="img" aria-label="getmyai logo mono">
  <path d="M256 42 432 144v224L256 470 80 368V144L256 42Z" fill="#000000"/>
  <path d="M256 96 386 171v170L256 416 126 341V171L256 96Z" fill="#FFFFFF"/>
  <path d="M256 138 350 192v122l-94 54-94-54V192l94-54Z" fill="#000000"/>
  <path d="M256 184 309 215v66l-53 31-53-31v-66l53-31Z" fill="#FFFFFF"/>
  <path d="M203 215 256 246l53-31M256 246v66" fill="none" stroke="#000000" stroke-width="18" stroke-linecap="round" stroke-linejoin="round"/>
  <circle cx="256" cy="246" r="23" fill="#000000"/>
</svg>
