<svg xmlns="http://www.w3.org/2000/svg" viewBox="0 0 128 128">
  <defs>
    <linearGradient id="g" x1="18" y1="14" x2="110" y2="116" gradientUnits="userSpaceOnUse">
      <stop stop-color="#7dd3fc"/>
      <stop offset=".48" stop-color="#38bdf8"/>
      <stop offset="1" stop-color="#2563eb"/>
    </linearGradient>
    <linearGradient id="s" x1="42" y1="28" x2="88" y2="99" gradientUnits="userSpaceOnUse">
      <stop stop-color="#fff"/>
      <stop offset="1" stop-color="#dff7ff"/>
    </linearGradient>
  </defs>
  <rect x="8" y="8" width="112" height="112" rx="30" fill="url(#g)"/>
  <path d="M32 70c0-24 15-42 35-42 14 0 25 7 31 19l-15 8c-3-7-8-11-16-11-11 0-19 10-19 26s8 25 20 25c8 0 14-4 17-11h-19V70h36v8c0 20-14 34-34 34-22 0-36-17-36-42Z" fill="url(#s)"/>
  <path d="M30 28h18l15 26 15-26h18L72 66v33H54V66L30 28Z" fill="#eafaff" opacity=".92"/>
  <circle cx="96" cy="32" r="8" fill="#e0f7ff"/>
  <circle cx="104" cy="52" r="4" fill="#bfebff" opacity=".86"/>
</svg>
